<?xml version="1.0" encoding="utf-8"?>
<!-- Generator: Adobe Illustrator 23.0.5, SVG Export Plug-In . SVG Version: 6.00 Build 0)  -->
<svg version="1.1" id="Layer_1" xmlns="http://www.w3.org/2000/svg" xmlns:xlink="http://www.w3.org/1999/xlink" x="0px" y="0px"
	 viewBox="0 0 964 600" style="enable-background:new 0 0 964 600;" xml:space="preserve">
<style type="text/css">
	.st0{clip-path:url(#SVGID_2_);fill-rule:evenodd;clip-rule:evenodd;}
	.st1{clip-path:url(#SVGID_2_);fill-rule:evenodd;clip-rule:evenodd;fill:#76BC21;}
	.st2{clip-path:url(#SVGID_2_);fill:#00A7E1;}
	.st3{clip-path:url(#SVGID_2_);fill:#E1251B;}
</style>
<g>
	<defs>
		<rect id="SVGID_1_" x="76.53" y="56.53" width="811.68" height="487"/>
	</defs>
	<clipPath id="SVGID_2_">
		<use xlink:href="#SVGID_1_"  style="overflow:visible;"/>
	</clipPath>
	<path class="st0" d="M843.6,502.49l-4.14,18.53c2.56,1.38,5.2,2.07,7.91,2.07c3.65,0,6.57-1.6,8.73-4.81
		c2.19-3.18,3.27-7.28,3.27-12.21c0-5.01-2.15-7.52-6.51-7.52C850.4,498.56,847.32,499.88,843.6,502.49 M838.62,524.72l-3.05,13.66
		h-4.9l9.76-43.37h4.87l-0.79,3.53c2.57-1.86,4.61-3.06,6.07-3.6c1.46-0.54,2.99-0.81,4.56-0.81c2.86,0,5.15,1.04,6.83,3.15
		c1.67,2.09,2.52,4.87,2.52,8.38c0,6.03-1.62,11.14-4.85,15.33c-3.24,4.18-7.25,6.27-12.04,6.27
		C844.35,527.27,841.38,526.44,838.62,524.72 M831,495.01l-7.12,31.65h-4.87l7.12-31.65H831z M833.93,483.39l-1.16,5.17h-5.52
		l1.17-5.17H833.93z M809.8,526.67h-4.89l4.07-18.04c0.51-2.27,0.77-4.07,0.77-5.42c0-3.09-1.68-4.64-5.06-4.64
		c-2.76,0-6.13,1.44-10.14,4.32l-5.38,23.79h-4.87l9.97-44.22h4.85l-3.68,16.37c4.45-3.12,8.19-4.68,11.21-4.68
		c2.54,0,4.54,0.7,6.02,2.11c1.46,1.41,2.19,3.42,2.19,6c0,1.27-0.22,2.89-0.67,4.83L809.8,526.67z M782.74,497.29l-1.09,5.08h-0.23
		c-3.1-2.79-6.49-4.2-10.16-4.2c-2.17,0-3.9,0.51-5.19,1.5c-1.29,0.98-1.94,2.37-1.94,4.12c0,1.84,1.41,3.2,4.23,4.1l5.75,1.65
		c2.1,0.61,3.65,1.49,4.69,2.68c1.06,1.18,1.58,2.64,1.58,4.41c0,3.13-1.22,5.71-3.67,7.76c-2.46,2.04-5.65,3.05-9.61,3.05
		c-4.21,0-8.07-1.08-11.61-3.3l1.18-5.4h0.21c3.42,3.18,7.07,4.76,10.92,4.76c4.99,0,7.5-1.94,7.5-5.84c0-1.85-1.46-3.2-4.36-4.07
		c-2.9-0.74-5.14-1.42-6.69-1.98c-1.58-0.58-2.84-1.42-3.76-2.55c-0.95-1.11-1.42-2.51-1.42-4.15c0-3.02,1.17-5.56,3.53-7.62
		c2.36-2.06,5.44-3.09,9.21-3.09C775.99,494.21,779.63,495.23,782.74,497.29 M758.73,495.3l-1.18,5.18h-0.18
		c-1.62-0.39-3.1-0.6-4.45-0.6c-3.13,0-6.54,1.37-10.18,4.04l-5.08,22.74h-4.9l7.05-31.65h4.85l-1.03,4.9
		c4.59-3.26,8.46-4.9,11.62-4.9C756.43,495.01,757.58,495.12,758.73,495.3 M707.01,507.67h18.16c0.11-0.77,0.16-1.58,0.16-2.48
		c0-4.71-2.5-7.08-7.52-7.08c-2.64,0-4.94,0.87-6.9,2.59C708.96,502.43,707.66,504.74,707.01,507.67 M729.29,511.19h-22.88
		c-0.1,0.87-0.14,1.67-0.14,2.41c0,3.09,0.93,5.49,2.79,7.18c1.85,1.68,4.41,2.51,7.68,2.51c3.98,0,7.45-1.06,10.39-3.16h0.24
		l-1.26,5.33c-4.17,1.29-7.52,1.94-10.01,1.94c-4.59,0-8.19-1.18-10.83-3.52c-2.62-2.32-3.91-5.61-3.91-9.82
		c0-5.63,1.6-10.35,4.82-14.18c3.23-3.84,7.29-5.75,12.17-5.75c3.73,0,6.59,0.97,8.61,2.94c2.03,1.94,3.04,4.75,3.04,8.4
		c0,1.25-0.13,2.55-0.39,3.94L729.29,511.19z M691.32,526.67h-4.89l4.08-18.04c0.51-2.27,0.76-4.06,0.76-5.39
		c0-3.11-1.67-4.67-5.04-4.67c-2.75,0-6.13,1.44-10.16,4.32l-5.36,23.79h-4.88l7.12-31.65h4.87l-0.84,3.8
		c4.46-3.12,8.2-4.68,11.19-4.68c2.55,0,4.56,0.7,6.02,2.12c1.48,1.44,2.22,3.43,2.22,5.99c0,1.27-0.24,2.89-0.68,4.83
		L691.32,526.67z M667.49,495.01l-0.89,3.84h-10.76l-3.4,15.04c-0.5,2.15-0.74,3.93-0.74,5.31c0,1.44,0.39,2.48,1.18,3.09
		c0.79,0.63,2.06,0.93,3.84,0.93c1.15,0,2.63-0.33,4.46-0.98h0.17l-0.96,4.23c-2.27,0.54-4.3,0.81-6.08,0.81
		c-5.16,0-7.73-2.34-7.73-7.05c0-1.27,0.16-2.59,0.47-3.97l3.93-17.41h-3.57l0.89-3.84h3.6l2.06-9.17h4.83l-2.06,9.17H667.49z
		 M646.25,495.3l-1.17,5.18h-0.2c-1.6-0.39-3.07-0.6-4.43-0.6c-3.15,0-6.53,1.37-10.18,4.04l-5.08,22.74h-4.89l7.03-31.65h4.88
		l-1.05,4.9c4.6-3.26,8.47-4.9,11.62-4.9C643.96,495.01,645.1,495.12,646.25,495.3 M609.96,509.92c-6.95,0.35-11.61,1.23-14,2.61
		c-2.4,1.37-3.59,3.3-3.59,5.8c0,3.2,1.9,4.8,5.7,4.8c2.65,0,5.91-1.34,9.82-4.02L609.96,509.92z M611.09,526.67h-4.87l0.76-3.59
		c-3.09,2.07-5.39,3.33-6.9,3.77c-1.51,0.45-3.01,0.66-4.47,0.66c-2.45,0-4.43-0.8-5.99-2.38c-1.56-1.58-2.34-3.61-2.34-6.08
		c0-4.16,1.73-7.25,5.21-9.32c3.46-2.07,9.56-3.24,18.27-3.49l0.22-0.96c0.16-0.72,0.23-1.38,0.23-2.01c0-3.25-2.51-4.86-7.52-4.86
		c-2.59,0-5.81,0.75-9.65,2.25h-0.2l1.08-4.89c3.68-1.02,6.98-1.54,9.91-1.54c7.54,0,11.31,2.71,11.31,8.13
		c0,1.02-0.13,2.2-0.42,3.51L611.09,526.67z M568.17,488.56l-4.04,17.81h5.98c4.47,0,7.74-1.01,9.82-3.03
		c2.04-2.03,3.09-4.66,3.09-7.89c0-4.59-3.18-6.89-9.55-6.89H568.17z M563.19,510.55l-3.62,16.11h-5.15l9.53-42.34h10.47
		c4.81,0,8.36,0.95,10.62,2.82c2.25,1.9,3.38,4.46,3.38,7.68c0,4.41-1.62,8.12-4.83,11.16c-3.22,3.06-7.61,4.56-13.12,4.56H563.19z
		 M526.1,526.67h-4.89l4.06-18.04c0.53-2.27,0.79-4.07,0.79-5.42c0-3.09-1.7-4.64-5.05-4.64c-2.76,0-6.13,1.44-10.17,4.32
		l-5.36,23.79h-4.87l9.97-44.22h4.87l-3.7,16.37c4.46-3.12,8.18-4.68,11.2-4.68c2.56,0,4.55,0.7,6.03,2.11
		c1.46,1.41,2.19,3.42,2.19,6c0,1.27-0.24,2.89-0.66,4.83L526.1,526.67z M492.26,500.46c-2.7-1.46-5.27-2.18-7.75-2.18
		c-3.62,0-6.57,1.53-8.77,4.6c-2.22,3.05-3.34,6.85-3.34,11.45c0,5.02,2.2,7.52,6.59,7.52c2.38,0,5.51-1.31,9.42-3.93L492.26,500.46
		z M498.39,495.01l-6.25,28.06c-1.21,5.42-3.24,9.39-6.07,11.9c-2.85,2.5-6.75,3.77-11.73,3.77c-3.19,0-6.26-0.49-9.18-1.44
		l1.08-4.84h0.22c2.9,1.32,5.92,1.98,9.06,1.98c6.13,0,9.85-3.05,11.21-9.15l0.77-3.43c-2.17,1.63-4.04,2.76-5.59,3.38
		c-1.56,0.63-3.27,0.93-5.11,0.93c-3.01,0-5.33-0.96-7.01-2.88c-1.67-1.91-2.49-4.65-2.49-8.19c0-5.63,1.64-10.55,4.89-14.73
		c3.26-4.17,7.24-6.25,11.9-6.25c3.12,0,6.13,0.85,8.98,2.58l0.74-1.7H498.39z M464.44,495.01l-7.13,31.65h-4.87l0.85-3.82
		c-4.39,3.12-8.11,4.69-11.16,4.69c-2.53,0-4.54-0.71-5.99-2.13c-1.46-1.42-2.21-3.4-2.21-5.96c0-1.37,0.23-2.98,0.65-4.83l4.4-19.6
		h4.88l-4.05,18.05c-0.49,2.19-0.75,3.99-0.75,5.4c0,3.09,1.67,4.63,4.98,4.63c2.75,0,6.12-1.42,10.14-4.27l5.38-23.81H464.44z
		 M416.34,498.2c-3.41,0-6.17,1.61-8.27,4.79c-2.1,3.2-3.16,7.14-3.16,11.85c0,5.77,2.53,8.65,7.59,8.65c3.42,0,6.19-1.62,8.29-4.81
		c2.11-3.18,3.17-7.14,3.17-11.85C423.95,501.07,421.4,498.2,416.34,498.2 M412.12,527.57c-3.83,0-6.82-1.14-8.99-3.37
		c-2.19-2.25-3.27-5.33-3.27-9.26c0-5.7,1.6-10.6,4.79-14.69c3.2-4.08,7.27-6.11,12.19-6.11c3.78,0,6.76,1.14,8.9,3.41
		c2.15,2.28,3.24,5.37,3.24,9.29c0,5.75-1.62,10.64-4.82,14.66C420.96,525.55,416.95,527.57,412.12,527.57 M401.57,495.3l-1.18,5.18
		h-0.19c-1.61-0.39-3.09-0.6-4.45-0.6c-3.15,0-6.53,1.37-10.2,4.04l-5.04,22.74h-4.92l7.07-31.65h4.85l-1.04,4.9
		c4.58-3.26,8.45-4.9,11.61-4.9C399.26,495.01,400.41,495.12,401.57,495.3 M366.36,526.67h-4.87l4.06-18.04
		c0.52-2.27,0.77-4.07,0.77-5.42c0-3.09-1.68-4.64-5.05-4.64c-2.75,0-6.14,1.44-10.15,4.32l-5.38,23.79h-4.87l9.97-44.22h4.88
		l-3.69,16.37c4.45-3.12,8.18-4.68,11.19-4.68c2.55,0,4.57,0.7,6.02,2.11c1.48,1.41,2.21,3.42,2.21,6c0,1.27-0.22,2.89-0.67,4.83
		L366.36,526.67z M342.53,495.01l-0.87,3.84h-10.77l-3.4,15.04c-0.49,2.15-0.73,3.93-0.73,5.31c0,1.44,0.39,2.48,1.19,3.09
		c0.77,0.63,2.04,0.93,3.82,0.93c1.16,0,2.64-0.33,4.46-0.98h0.17l-0.97,4.23c-2.27,0.54-4.28,0.81-6.07,0.81
		c-5.16,0-7.73-2.34-7.73-7.05c0-1.27,0.16-2.59,0.47-3.97l3.91-17.41h-3.57l0.89-3.84h3.6l2.06-9.17h4.83l-2.06,9.17H342.53z
		 M298.96,497.29l-1.11,5.08h-0.22c-3.11-2.79-6.49-4.2-10.16-4.2c-2.18,0-3.9,0.51-5.19,1.5c-1.29,0.98-1.93,2.37-1.93,4.12
		c0,1.84,1.4,3.2,4.21,4.1l5.75,1.65c2.09,0.61,3.66,1.49,4.7,2.68c1.05,1.18,1.58,2.64,1.58,4.41c0,3.13-1.21,5.71-3.68,7.76
		c-2.44,2.04-5.65,3.05-9.6,3.05c-4.21,0-8.09-1.08-11.63-3.3l1.19-5.4h0.2c3.45,3.18,7.08,4.76,10.91,4.76
		c5.01,0,7.52-1.94,7.52-5.84c0-1.85-1.46-3.2-4.36-4.07c-2.91-0.74-5.13-1.42-6.71-1.98c-1.54-0.58-2.8-1.42-3.75-2.55
		c-0.94-1.11-1.42-2.51-1.42-4.15c0-3.02,1.2-5.56,3.54-7.62c2.37-2.06,5.43-3.09,9.22-3.09
		C292.21,494.21,295.85,495.23,298.96,497.29 M271.27,497.29l-1.1,5.08h-0.22c-3.11-2.79-6.49-4.2-10.16-4.2
		c-2.18,0-3.91,0.51-5.19,1.5c-1.28,0.98-1.93,2.37-1.93,4.12c0,1.84,1.4,3.2,4.22,4.1l5.75,1.65c2.09,0.61,3.64,1.49,4.69,2.68
		c1.05,1.18,1.58,2.64,1.58,4.41c0,3.13-1.21,5.71-3.69,7.76c-2.44,2.04-5.63,3.05-9.59,3.05c-4.21,0-8.08-1.08-11.62-3.3l1.17-5.4
		h0.22c3.43,3.18,7.06,4.76,10.9,4.76c5,0,7.5-1.94,7.5-5.84c0-1.85-1.45-3.2-4.35-4.07c-2.91-0.74-5.13-1.42-6.69-1.98
		c-1.58-0.58-2.82-1.42-3.77-2.55c-0.93-1.11-1.41-2.51-1.41-4.15c0-3.02,1.17-5.56,3.53-7.62c2.35-2.06,5.42-3.09,9.21-3.09
		C264.52,494.21,268.16,495.23,271.27,497.29 M219.5,507.67h18.15c0.13-0.77,0.19-1.58,0.19-2.48c0-4.71-2.51-7.08-7.52-7.08
		c-2.65,0-4.94,0.87-6.9,2.59C221.46,502.43,220.16,504.74,219.5,507.67 M241.79,511.19h-22.88c-0.1,0.87-0.15,1.67-0.15,2.41
		c0,3.09,0.93,5.49,2.8,7.18c1.85,1.68,4.42,2.51,7.69,2.51c3.97,0,7.43-1.06,10.38-3.16h0.24l-1.27,5.33
		c-4.18,1.29-7.52,1.94-10.03,1.94c-4.57,0-8.19-1.18-10.81-3.52c-2.62-2.32-3.93-5.61-3.93-9.82c0-5.63,1.61-10.35,4.84-14.18
		c3.22-3.84,7.27-5.75,12.17-5.75c3.71,0,6.59,0.97,8.61,2.94c2.04,1.94,3.03,4.75,3.03,8.4c0,1.25-0.12,2.55-0.38,3.94
		L241.79,511.19z M213.01,497.53l-1.14,5.31h-0.26c-1.95-1.9-3.63-3.13-5.06-3.67c-1.4-0.55-2.84-0.83-4.31-0.83
		c-3.52,0-6.36,1.48-8.52,4.42c-2.13,2.95-3.2,6.66-3.2,11.14c0,6.24,2.92,9.35,8.78,9.35c2.9,0,6.15-1.14,9.7-3.43h0.26l-1.21,5.42
		c-3.48,1.43-6.53,2.15-9.13,2.15c-4.25,0-7.54-1.12-9.91-3.37c-2.36-2.25-3.53-5.46-3.53-9.61c0-5.55,1.57-10.32,4.73-14.27
		c3.18-3.93,7.28-5.92,12.32-5.92C206.04,494.23,209.54,495.32,213.01,497.53 M184.66,497.53l-1.16,5.31h-0.24
		c-1.94-1.9-3.64-3.13-5.05-3.67c-1.42-0.55-2.85-0.83-4.31-0.83c-3.54,0-6.36,1.48-8.52,4.42c-2.13,2.95-3.2,6.66-3.2,11.14
		c0,6.24,2.91,9.35,8.78,9.35c2.92,0,6.15-1.14,9.7-3.43h0.24l-1.21,5.42c-3.49,1.43-6.53,2.15-9.13,2.15
		c-4.26,0-7.56-1.12-9.91-3.37c-2.34-2.25-3.53-5.46-3.53-9.61c0-5.55,1.58-10.32,4.75-14.27c3.16-3.93,7.28-5.92,12.31-5.92
		C177.68,494.23,181.18,495.32,184.66,497.53 M154.04,495.01l-7.12,31.65h-4.87l0.85-3.82c-4.39,3.12-8.12,4.69-11.16,4.69
		c-2.54,0-4.54-0.71-6-2.13c-1.46-1.42-2.2-3.4-2.2-5.96c0-1.37,0.22-2.98,0.64-4.83l4.39-19.6h4.89l-4.06,18.05
		c-0.47,2.19-0.74,3.99-0.74,5.4c0,3.09,1.67,4.63,5,4.63c2.74,0,6.11-1.42,10.14-4.27l5.36-23.81H154.04z M120.79,487.49
		l-1.31,5.76h-0.39c-3.52-3.64-7.93-5.48-13.23-5.48c-3.03,0-5.45,0.77-7.27,2.3c-1.82,1.54-2.73,3.53-2.73,5.96
		c0,2.72,1.61,4.59,4.8,5.64c1.08,0.28,2.46,0.66,4.11,1.14l4.68,1.33c1.49,0.44,2.75,0.97,3.74,1.58c0.99,0.63,1.8,1.3,2.45,2.05
		c0.62,0.76,1.1,1.58,1.41,2.49c0.31,0.91,0.47,1.9,0.47,2.97c0,3.99-1.56,7.34-4.71,10.07c-3.13,2.75-7.2,4.11-12.22,4.11
		c-5.03,0-10.1-1.43-15.23-4.29l1.25-6.26h0.37c1.84,1.96,4.03,3.51,6.58,4.64c2.53,1.15,5.05,1.72,7.57,1.72
		c3.43,0,6.1-0.83,8.03-2.44c1.94-1.62,2.91-3.74,2.91-6.36c0-2.54-1.42-4.33-4.25-5.36c-3.47-0.87-6.51-1.68-9.15-2.46
		c-2.65-0.76-4.68-1.94-6.12-3.53c-1.43-1.58-2.15-3.55-2.15-5.93c0-3.84,1.48-7.06,4.48-9.66c2.97-2.61,6.76-3.92,11.38-3.92
		C111.11,483.56,115.95,484.88,120.79,487.49"/>
	<path class="st1" d="M404.44,350.14c-3.83,31.69-16.68,57-38.57,75.91c-21.89,18.91-49.59,28.37-83.1,28.37h-79.91
		c-43.91,0-75.15-7.67-93.73-23.01c-18.58-15.32-25.83-39.87-21.75-73.62l3.64-30.15h104.04l-1.05,8.69
		c-1.39,11.59,0.74,19.52,6.42,23.78c5.69,4.25,16.57,6.39,32.66,6.39h24.62c13.41,0,22.8-1.44,28.17-4.35
		c5.39-2.9,8.61-8.78,9.67-17.63l1.93-15.85c1.14-9.54-2.48-15.68-10.85-18.41c-4.18-1.37-11.25-2.55-21.18-3.58l-78.42-8.17
		c-30.72-3.76-52.3-13.56-64.8-29.4c-12.49-15.84-16.85-39.44-13.06-70.8l2.71-22.5c4.34-35.78,18.84-63.05,43.58-81.79
		c11.03-8.17,23.68-13.62,37.91-16.36c14.23-2.72,32.91-4.09,56.03-4.09h58.81c38.53,0,66.83,7.75,84.88,23.26
		c18.06,15.51,25.34,37.74,21.85,66.71l-3.59,29.66H307.31l1.05-8.7c1.11-9.19-0.3-15.5-4.25-18.91
		c-3.94-3.42-11.77-5.11-23.51-5.11h-22.61c-13.07,0-22.44,1.28-28.11,3.83c-5.66,2.55-8.98,7.75-9.91,15.58l-1.79,14.85
		c-0.95,7.83,1.44,12.94,7.19,15.34c2.55,1.02,11.1,2.38,25.64,4.08l71.38,8.17c64.15,7.16,92.9,38.17,86.27,93.04L404.44,350.14z"
		/>
	<path class="st2" d="M639.61,90.83c-18.58-13.75-51.56-20.62-98.97-20.62h-92.65H337.49c7.67,0.76,11.9,1.41,20.81,3.72
		c17.35,4.46,28.54,9.94,39.23,19.13c19.32,16.58,27.24,40.48,23.53,71.05l-4.1,34.86h-76.61l-2.42,19.52
		c28.66,5.19,49.56,16.87,62.4,33.08c12.8,16.17,17.66,37.82,14.44,64.38l-4.19,34.76c-3.96,32.8-17.51,59.41-40.26,79.07
		c-13.3,11.49-28.77,19.82-46.24,24.64h23.59h143.99c51.89,0,88.86-6.87,110.94-20.62c23.94-14.81,38.23-41.57,42.9-80.33l2.69-22.2
		c4.39-36.29-10.58-61.3-44.91-75.04c32.28-9.51,50.65-32.76,55.12-69.76l2.95-24.31C665.43,128.35,658.18,104.58,639.61,90.83
		 M535.52,323.36l-1.86,15.33c-1.78,14.79-11.66,22.19-29.66,22.19h-70.06l7.21-59.72h70.06c9.32,0,15.96,1.67,19.89,5.02
		C535.02,309.53,536.49,315.24,535.52,323.36 M546.65,183.85l-1.79,14.8c-1.66,13.74-10.79,20.59-27.39,20.59h-66.43l6.77-56.01
		h66.41C540.83,163.22,548.31,170.1,546.65,183.85"/>
	<path class="st3" d="M585.07,66.97c24.58,3.24,46.11,10.56,58.69,19.88c20.02,14.81,28.01,40.35,23.73,75.91l-2.95,24.31
		c-4.15,34.36-19.98,57.75-47.12,69.72c28.66,15.42,41.06,40.63,36.91,75.09l-2.68,22.19c-4.84,40.13-20.05,68.39-45.22,83.95
		c-11.92,7.41-27.61,12.86-47.32,16.4h9.65h69.78H864.9l12.02-97.81H704.2l35.47-289.65H585.07z"/>
</g>
</svg>
