<?xml version="1.0" encoding="utf-8"?>
<!-- Generator: Adobe Illustrator 24.3.0, SVG Export Plug-In . SVG Version: 6.00 Build 0)  -->
<svg version="1.1" id="Layer_1" xmlns="http://www.w3.org/2000/svg" xmlns:xlink="http://www.w3.org/1999/xlink" x="0px" y="0px"
	 viewBox="0 0 100 100" style="enable-background:new 0 0 100 100;" xml:space="preserve">
<style type="text/css">
	.st0{fill:#F6C4A6;}
	.st1{fill:#A15727;}
	.st2{opacity:0.7;}
	.st3{opacity:0.7;fill:#F6C4A6;}
	.st4{clip-path:url(#SVGID_2_);}
	.st5{fill:#FFF9F7;}
	.st6{fill:#E8E1D9;}
	.st7{opacity:0.7;fill:url(#SVGID_3_);}
	.st8{fill:#FFFFFF;}
	.st9{opacity:0.7;fill:url(#SVGID_4_);}
	.st10{clip-path:url(#SVGID_6_);}
	.st11{fill:#C92339;}
	.st12{fill:#EE7673;}
	.st13{fill:#29110D;}
	.st14{fill:#582F1A;}
	.st15{opacity:0.56;fill:#582F1A;}
	.st16{fill:#67311E;}
	.st17{opacity:0.5;}
	.st18{fill:#7D462E;}
	.st19{fill:#A75933;}
	.st20{fill:#9FA437;}
	.st21{opacity:0.6;}
	.st22{fill:#AD4D38;}
	.st23{fill:#A7B338;}
	.st24{fill:#100A10;}
	.st25{fill:#584F82;}
	.st26{fill:#40465A;stroke:#232444;stroke-linecap:round;stroke-linejoin:round;stroke-miterlimit:10;}
	.st27{fill:#717998;stroke:#3A3E65;stroke-linecap:round;stroke-linejoin:round;stroke-miterlimit:10;}
	.st28{fill:#464C62;}
	.st29{fill:#464C62;stroke:#1F2040;stroke-linecap:round;stroke-linejoin:round;stroke-miterlimit:10;}
	.st30{fill:#387ABD;stroke:#3A3E65;stroke-linecap:round;stroke-linejoin:round;stroke-miterlimit:10;}
</style>
<g>
	<g>
		<g>
			<g>
				<g>
					<g>
						<g>
							<path class="st0" d="M21.9,48.6c0.8-2.8,0.2-8.8,0.2-8.8s4.5,9.5,5.2,6.4c0.7-3.1-1.8-8.2-1.8-8.2c5.6,6.5,17.4,8.6,13.7,5.2
								c-3.8-3.4-6.2-7.1-6.2-7.1c2.6,3.3,13.5,8.5,13.9,6.9c0.4-1.6-4.8-8.9-4.8-8.9s11.2,10.6,12.5,8.6c1.2-2-1.7-8.6-1.7-8.6
								s9.1,9.7,9.6,8.4c0.5-1.3-2.3-6.7-2.3-6.7s8.9,11.7,9.3,9.7c0.4-2-0.8-6.4-0.8-6.4s5,14.6,6.1,12.1c1.2-2.5,0.4-7.5,0.4-7.5
								c1.3,5.8,4.2,15.1,4.2,15.1c1.8-6,7.4-7,9.8-1.2c2.4,5.8-1.2,13.2-4.8,13.7c-3.5,0.6-4.2-2-4.2-2c0,4.1-4.4,10.4-4.4,10.4
								c-3,4.2-8,8.6-16,11c-18.9,5.6-29.2-3.4-33-10.5c-3.8-7.1-2.2-11.8-3.2-17.3c-1-5.5-4.2-9.8-4.2-9.8c0.2-2.6,0.3-5.2,0.3-5.2
								S21.1,51.4,21.9,48.6z"/>
							<path class="st0" d="M40.5,72c0.2,0.4,0.4,0.9,0.7,1.2c0.6,0.8,1.3,1.5,2.1,2c0.7,0.4,1.5,0.8,2.3,0.4c0.8-0.4,1.4-1.2,1.7-2
								c0.3-0.7,0.5-1.5,0.5-2.3c-0.4,0.2-0.9,0.3-1.3,0.5C45.1,72.3,41.7,73.6,40.5,72z"/>
							<g>
								<path class="st1" d="M21.7,48.7c0.8-2.7,0.5-5.9,0.2-8.7c0-0.1,0.3-0.3,0.3-0.2c1,2.2,2.2,4.6,3.8,6.5
									c0.3,0.3,0.8,0.8,1,0.2c0.3-1.1,0.1-2.4-0.1-3.5c-0.3-1.6-0.9-3.3-1.6-4.8c0-0.1,0.2-0.3,0.3-0.2c1.9,2.1,4.3,3.7,6.8,5
									c1.9,0.9,4,1.7,6.1,1.8c0.4,0,1.4,0.1,1.1-0.6c-0.1-0.3-0.3-0.5-0.5-0.7c-0.7-0.7-1.4-1.3-2.1-2.1c-1.5-1.6-3-3.3-4.2-5.2
									c-0.1-0.1,0.2-0.3,0.3-0.2c1.6,2,4,3.3,6.2,4.5c2,1.1,4.4,2.4,6.7,2.7c0.3,0,0.7,0.1,0.7-0.2c0-0.4-0.1-0.8-0.3-1.2
									c-0.4-1.1-1-2.1-1.6-3.1c-0.9-1.5-1.9-3-2.9-4.4c-0.1-0.1,0.2-0.3,0.3-0.2c2.9,2.7,6,5.5,9.3,7.7c0.7,0.5,1.5,0.9,2.3,1.1
									c1.1,0.3,0.9-1.8,0.8-2.5c-0.3-2.1-1.1-4.2-2-6.2c0-0.1,0.2-0.3,0.3-0.2c2.3,2.4,4.6,4.8,7.1,7c0.6,0.5,1.1,1,1.8,1.4
									c0.1,0,0.2,0.1,0.3,0.1c0.2,0.1,0.1,0.1,0.1,0c0.1-0.4,0-1-0.1-1.4c-0.5-1.8-1.3-3.6-2.2-5.2c0-0.1,0.2-0.3,0.3-0.2
									c1.9,2.5,3.9,5.1,6,7.4c0.6,0.6,1.1,1.2,1.8,1.8c0.2,0.2,0.5,0.4,0.7,0.6c0.1,0.1,0.2,0.1,0.3,0.1c0.2,0.1,0.1,0,0.1,0
									c0.4-1.1,0-2.9-0.2-4c-0.1-0.8-0.3-1.6-0.5-2.5c0-0.1,0.3-0.3,0.3-0.2c1.1,3.2,2.3,6.4,3.7,9.4c0.4,0.7,0.7,1.5,1.2,2.2
									c0.2,0.2,0.3,0.5,0.5,0.6c0.3,0.3,0.4,0,0.5-0.3c0.8-2.2,0.6-4.9,0.2-7.2c0-0.1,0.3-0.3,0.3-0.2c1.2,5.1,2.6,10.1,4.2,15.1
									c-0.1,0.1-0.2,0.1-0.3,0.2c0.8-2.7,3-5.7,6.1-5.2c3.8,0.6,4.9,5.8,4.7,8.9c-0.2,3-1.6,6.6-4.2,8.3c-1.8,1.1-5.1,1-5.8-1.4
									c0,0,0,0,0,0c0.1-0.1,0.2-0.1,0.3-0.2c0,3.4-2,6.7-3.8,9.5c-1.7,2.6-3.8,4.9-6.3,6.8c-3.9,3.1-8.6,4.9-13.4,6.1
									c-4,0.9-8.2,1.3-12.4,0.7c-5.9-0.8-11.4-3.7-15.3-8.3c-2.1-2.4-3.6-5.3-4.4-8.4c-1.1-3.8-0.7-7.7-1.1-11.5
									c-0.4-3.5-1.8-6.8-3.6-9.8c-0.2-0.3-0.4-0.6-0.6-1c-0.2-0.3-0.1-0.8,0-1.2c0.1-1.4,0.2-2.7,0.3-4.1c0-0.1,0.3-0.3,0.3-0.2
									c0.1,0.3,0.3,0.6,0.5,0.9c0.1,0.2,0.3,0.5,0.5,0.7C21.3,49.9,21.6,49.1,21.7,48.7c0-0.1,0.3-0.3,0.3-0.1
									c-0.2,0.5-0.6,1.5-1.3,1.2c-0.6-0.3-0.9-1.2-1.2-1.7c0.1-0.1,0.2-0.1,0.3-0.2c0,0.6-0.1,1.2-0.1,1.9c0,0.6-0.1,1.3-0.1,1.9
									c0,0.4-0.3,1.2,0,1.5c1,1.3,1.7,2.8,2.4,4.2c1,2.2,1.7,4.6,1.9,7.1c0.2,1.8,0.2,3.7,0.3,5.6c0.3,6.7,3.3,12.8,8.5,17
									c5.6,4.5,12.9,5.9,19.9,5.1c9.1-1,18.3-5.1,23.5-13c1.8-2.8,3.9-6.2,3.9-9.7c0-0.1,0.3-0.3,0.3-0.2c0.6,2.2,3.7,2.4,5.3,1.5
									c2.6-1.5,3.8-5.2,4.1-8c0.3-3-0.7-6.9-3.5-8.4c-3.2-1.8-5.9,1.7-6.7,4.4c0,0.1-0.3,0.3-0.3,0.2c-1.6-5-3.1-10-4.2-15.1
									c0.1-0.1,0.2-0.1,0.3-0.2c0.4,2.3,0.7,5.4-0.4,7.6c-0.6,1.3-1.7-0.7-2-1.2c-1.9-3.4-3.2-7.2-4.4-10.8
									c0.1-0.1,0.2-0.1,0.3-0.2c0.3,1,0.4,1.9,0.6,2.9c0.1,0.7,0.2,1.5,0.2,2.2c0,0.4,0.1,1.1-0.1,1.5c-0.5,1-2-0.7-2.3-1.1
									c-2.6-2.6-4.9-5.6-7.2-8.6c0.1-0.1,0.2-0.1,0.3-0.2c0.9,1.8,1.8,3.6,2.3,5.6c0.1,0.4,0.3,1.3-0.3,1.5
									c-0.5,0.2-1-0.3-1.3-0.6c-1.8-1.3-3.5-3-5.1-4.7c-1.1-1.1-2.2-2.2-3.2-3.3c0.1-0.1,0.2-0.1,0.3-0.2c1,2.1,1.9,4.5,2,6.9
									c0,0.7,0,1.8-0.7,2.1c-0.6,0.3-1.3-0.1-1.9-0.4c-2.4-1.2-4.5-3.1-6.5-4.8c-1.4-1.1-2.7-2.3-4-3.5c0.1-0.1,0.2-0.1,0.3-0.2
									c1.2,1.7,2.4,3.4,3.4,5.3c0.4,0.7,2.4,3.7,0.8,4.1c-0.8,0.2-1.8-0.2-2.5-0.5c-1.4-0.5-2.8-1.1-4.1-1.8
									c-2.4-1.3-5.3-2.8-7-4.9c0.1-0.1,0.2-0.1,0.3-0.2c1.5,2.3,3.4,4.5,5.4,6.4c0.6,0.6,2.5,2.1,0.7,2.5c-0.7,0.2-1.5,0-2.2-0.1
									c-1.3-0.2-2.6-0.7-3.8-1.2c-3-1.2-5.8-3-7.9-5.5c0.1-0.1,0.2-0.1,0.3-0.2c0.8,1.7,1.5,3.6,1.8,5.5c0.1,0.6,0.6,3.8-0.8,3.6
									c-0.5-0.1-0.9-0.7-1.2-1.1c-0.6-0.8-1.1-1.6-1.6-2.5c-0.6-1.1-1.2-2.3-1.8-3.4c0.1-0.1,0.2-0.1,0.3-0.2
									c0.3,2.8,0.6,6-0.2,8.8C22,48.6,21.7,48.8,21.7,48.7z"/>
							</g>
						</g>
						<g class="st2">
							<path class="st0" d="M26.7,80.2c3.8,7.1,14.1,16.1,33,10.5c8-2.4,12.9-6.8,16-11c0,0,4.4-6.2,4.4-10.4c0,0,0.7,2.5,4.2,2
								c3.5-0.6,7.2-7.9,4.8-13.7c-2.4-5.8-8-4.8-9.8,1.2c0,0-2.9-9.4-4.2-15.1c0,0,0.8,5-0.4,7.5C73.6,53.7,68.6,39,68.6,39
								s1.2,4.4,0.8,6.4c-0.4,2-9.3-9.7-9.3-9.7s2.8,5.4,2.3,6.7c-0.5,1.3-9.6-8.4-9.6-8.4s3,6.7,1.7,8.6c-1.2,2-12.5-8.6-12.5-8.6
								s5.2,7.3,4.8,8.9c-0.4,1.6-11.3-3.6-13.9-6.9c0,0,2.4,3.7,6.2,7.1c3.8,3.4-8.1,1.3-13.7-5.2c0,0,2.5,5.1,1.8,8.2
								c-0.7,3.1-5.2-6.4-5.2-6.4s0.6,6-0.2,8.8c-0.8,2.8-2.2-0.7-2.2-0.7s-0.1,2.5-0.3,5.2c0,0,3.2,4.3,4.2,9.8
								C24.5,68.4,22.9,73.1,26.7,80.2z M24.9,71.9c-0.2-7.2-1-10.3-2.2-14.9c-1.7-6.7,1.3-12.3,1.8-10.8c0.6,1.4,2.7,4.5,4,2.1
								c1.3-2.4,1-5.1,1-5.1c11.7,6.8,12.3,0.3,12.3,0.3s4.6,2.8,5.9,1.4c1.3-1.4,0.1-4,0.1-4s4.7,4.7,6.9,3.6
								c2.2-1.1,1.9-4.4,2.4-3.4c3.6,6.6,7.2,3.3,7.2,3.3c4.5,5.9,5.8,4.2,6.2,5.2c1.5,3.4,2.5,8.1,3.8,5.5
								c2-4.2,10.8,21.9-14.5,33.1C38.6,97.6,25.2,79.2,24.9,71.9z"/>
						</g>
						<path class="st3" d="M70.3,66.9c0,0-6.8-0.5-10.9,6.5c0,0-0.4-0.4,0.3-1.9c0,0-3,1.3-6-4.4c-3-5.8-1.1-10.8,3.2-11.9
							c4.3-1.1,10.9,5.3,8.8,11.2C65.7,66.3,68.5,65.8,70.3,66.9z"/>
						<path class="st3" d="M35.3,76.2c0,0-2.7-7-8.5-5c0,0,0.2-0.7,1.8-1c0,0-3.7-7.4,1.1-11.6c4.8-4.2,10.4,2.2,10.8,8.2
							c0.4,5.3-5.6,7-5.6,7S35.2,74.7,35.3,76.2z"/>
						<g>
							<path class="st0" d="M18.8,69c-0.3-4.3,2.2-5.5,4.9-4.7c0.4,3.7-0.1,7.1,1.1,11.3C22.5,77,19.1,73.3,18.8,69z"/>
							<g>
								<path class="st1" d="M18.6,69.1c-0.1-1.6,0.1-3.5,1.6-4.5c1.1-0.7,2.4-0.7,3.7-0.3c0,0,0,0,0,0c0.4,3.8,0.1,7.6,1.1,11.3
									c0,0.1-0.1,0.1-0.1,0.1c-1.3,0.7-2.6,0.1-3.7-0.9C19.6,73.4,18.8,71.2,18.6,69.1c0-0.1,0.3-0.2,0.3-0.1
									c0.1,1.8,0.8,3.4,1.8,4.9c0.9,1.2,2.5,2.6,4,1.8c0,0-0.1,0.1-0.1,0.1c-0.9-3.2-0.9-6.4-1-9.6c0-0.8,0.1-1.7-0.9-1.8
									c-0.7-0.1-1.5-0.1-2.2,0.3C19,65.3,18.9,67.4,19,69C19,69.1,18.6,69.2,18.6,69.1z"/>
							</g>
						</g>
						<g class="st2">
							<path class="st0" d="M18.8,69c-0.3-4.3,2.2-5.5,4.9-4.7c0.4,3.7-0.1,7.1,1.1,11.3C22.5,77,19.1,73.3,18.8,69z"/>
						</g>
						<g>
							<g>
								<path class="st1" d="M86.8,60.1c0,0-0.1-0.2-0.2-0.6c0-0.2-0.2-0.4-0.3-0.6c-0.1-0.1-0.2-0.2-0.3-0.3
									c-0.1-0.1-0.2-0.2-0.4-0.3c-0.2-0.1-0.3-0.2-0.5-0.2c-0.2,0-0.4-0.1-0.6-0.1c-0.2,0-0.4,0-0.6,0c-0.2,0-0.4,0.1-0.6,0.2
									c-0.2,0.1-0.4,0.2-0.6,0.3c-0.2,0.1-0.4,0.3-0.5,0.4c-0.2,0.1-0.3,0.4-0.4,0.5c-0.1,0.2-0.2,0.4-0.3,0.6
									c-0.2,0.4-0.3,0.9-0.4,1.3c-0.1,0.4,0,0.9-0.1,1.3c0,0.4,0.1,0.8,0.2,1.2c0.1,0.4,0.2,0.7,0.3,1c0.1,0.3,0.2,0.6,0.3,0.8
									c0.1,0.2,0.2,0.4,0.3,0.6c0.2,0.3,0.3,0.5,0.3,0.5s0-0.2-0.1-0.6c0-0.2-0.1-0.4-0.2-0.7c-0.1-0.2-0.1-0.5-0.2-0.8
									c0-0.3-0.1-0.6-0.2-1c0-0.4,0-0.7-0.1-1.1c0-0.4,0-0.8,0.1-1.2c0.1-0.4,0.2-0.8,0.3-1.1l0.1-0.3c0-0.1,0.1-0.2,0.2-0.2
									c0.1-0.1,0.2-0.3,0.3-0.5c0.1-0.1,0.3-0.3,0.4-0.4c0.2-0.1,0.3-0.2,0.5-0.3c0.2-0.1,0.3-0.1,0.5-0.2c0.2,0,0.3,0,0.5-0.1
									c0.2,0,0.3,0,0.5,0.1c0.2,0,0.3,0.1,0.4,0.1c0.1,0,0.2,0.1,0.4,0.2c0.1,0.1,0.2,0.1,0.3,0.2c0.1,0.2,0.3,0.3,0.4,0.5
									C86.7,59.9,86.8,60.1,86.8,60.1z"/>
							</g>
							<g>
								<path class="st1" d="M86,63.1c0,0-0.1,0.1-0.2,0.2c-0.1,0.1-0.2,0.1-0.3,0.2c-0.1,0.1-0.2,0.2-0.4,0.3
									C85,63.9,84.8,64,84.7,64c-0.1,0-0.2,0.1-0.3,0.1c-0.1,0-0.2,0-0.3,0c-0.2,0-0.4,0-0.5-0.1c-0.2-0.1-0.3-0.2-0.5-0.3
									c-0.1-0.1-0.3-0.3-0.4-0.4c-0.1-0.2-0.2-0.3-0.3-0.5c-0.1-0.2-0.2-0.4-0.3-0.5c-0.1-0.2-0.1-0.4-0.2-0.5
									c-0.1-0.3-0.2-0.6-0.3-0.8c-0.1-0.2-0.1-0.3-0.1-0.3s0,0.1,0,0.3c0,0.2,0,0.5,0,0.9c0,0.2,0,0.4,0.1,0.6
									c0.1,0.2,0.1,0.4,0.2,0.6c0.1,0.2,0.2,0.4,0.3,0.7c0.1,0.2,0.3,0.4,0.5,0.6c0.2,0.2,0.5,0.3,0.7,0.4c0.3,0.1,0.5,0.1,0.8,0
									c0.1,0,0.2,0,0.4-0.1c0.1,0,0.2-0.1,0.3-0.1c0.2-0.1,0.4-0.2,0.5-0.4c0.3-0.3,0.4-0.6,0.5-0.7C86,63.2,86,63.1,86,63.1z"/>
							</g>
						</g>
						<g>
							<g>
								<path class="st1" d="M20.2,68.7c0,0,0.1-0.1,0.2-0.2c0.2-0.1,0.4-0.3,0.7-0.5c0.1,0,0.1-0.1,0.2-0.1c0.1,0,0.2,0,0.2,0
									c0.1,0,0.2,0,0.2,0c0.1,0,0.2,0.1,0.2,0.1c0.2,0.1,0.3,0.2,0.4,0.4c0.1,0.1,0.2,0.3,0.4,0.5c0.1,0.2,0.2,0.4,0.3,0.6
									c0.1,0.2,0.2,0.4,0.2,0.6c0.1,0.2,0.1,0.4,0.2,0.6c0.1,0.2,0.1,0.4,0.2,0.6c0.1,0.3,0.2,0.6,0.3,0.8
									c0.1,0.2,0.1,0.3,0.1,0.3s0-0.1,0-0.3c0-0.2,0-0.5,0-0.9c0-0.4-0.1-0.8-0.2-1.3c0-0.2-0.1-0.5-0.2-0.7
									c-0.1-0.2-0.2-0.5-0.3-0.7c-0.2-0.2-0.3-0.4-0.5-0.6c-0.1-0.1-0.2-0.2-0.3-0.3c-0.1-0.1-0.2-0.2-0.4-0.2
									c-0.1-0.1-0.3-0.1-0.4-0.1c-0.1,0-0.3,0-0.4,0c-0.1,0-0.2,0.1-0.3,0.1c-0.1,0-0.2,0.1-0.3,0.2c-0.2,0.1-0.3,0.3-0.4,0.4
									c-0.1,0.1-0.2,0.2-0.2,0.3C20.3,68.5,20.2,68.7,20.2,68.7z"/>
							</g>
							<g>
								<path class="st1" d="M23.6,69.6c0,0,0,0.1,0,0.2c0,0.1-0.1,0.3-0.1,0.4c0,0.1-0.1,0.1-0.1,0.2c-0.1,0.1-0.1,0.1-0.1,0.2
									c0,0.1-0.1,0.1-0.2,0.2c-0.1,0-0.1,0.1-0.2,0.1c-0.1,0-0.2,0.1-0.2,0.1c-0.1,0-0.2,0-0.3,0c-0.2,0-0.3,0-0.5,0
									c-0.2,0-0.3-0.1-0.4-0.1c-0.1-0.1-0.2-0.1-0.2-0.1s0,0.1,0,0.2c0,0.1,0,0.1,0.1,0.2c0,0.1,0.1,0.1,0.2,0.2
									c0.2,0.2,0.4,0.3,0.7,0.3c0.1,0,0.3,0,0.4,0c0.1,0,0.3-0.1,0.4-0.1c0.3-0.1,0.5-0.4,0.6-0.6c0.1-0.1,0.1-0.3,0.1-0.4
									c0-0.1,0-0.2,0-0.3c0-0.2-0.1-0.4-0.2-0.4C23.7,69.6,23.6,69.6,23.6,69.6z"/>
							</g>
						</g>
						<g>
							<g>
								<g>
									<defs>
										<path id="SVGID_1_" d="M53.2,57.1c3.6-6.9,10-6.1,14.1-2.1c3.3,3.2,3.5,10.9-0.4,11.8c-3.1,0.8-5.9,3.3-6.3,4.1
											C55.2,71.8,49.7,63.8,53.2,57.1z"/>
									</defs>
									<clipPath id="SVGID_2_">
										<use xlink:href="#SVGID_1_"  style="overflow:visible;"/>
									</clipPath>
									<g class="st4">
										<g>
											<g>
												<path class="st5" d="M64.9,61.7c1.4,3.9-0.5,7.8-3.6,8.6c-3.2,0.8-5.9-1.7-7-5.6c-1.1-3.9-0.1-7.8,2.5-8.8
													C59.4,54.9,63.4,57.8,64.9,61.7z"/>
												<g>
													<path class="st1" d="M65,61.7c1.1,3.1,0.2,6.9-2.9,8.4c-3.6,1.8-6.6-1.6-7.7-4.8c-1-3-1.1-7.8,2.2-9.4
														c1.4-0.7,3-0.1,4.2,0.6C62.7,57.7,64.2,59.6,65,61.7c0,0-0.1,0.2-0.1,0.1c-1.1-2.8-3.9-6.2-7.3-6c-2,0.2-3,2.2-3.4,3.9
														c-0.4,1.8-0.1,3.8,0.4,5.5c0.9,2.9,3.2,5.7,6.5,5.1c3.9-0.7,4.8-5.4,3.7-8.6C64.8,61.7,64.9,61.6,65,61.7z"/>
												</g>
											</g>
											<path class="st6" d="M64.9,61.7c-1.4-3.9-5.5-6.8-8.1-5.8c-2.6,1-3.6,4.9-2.5,8.8c1.1,3.9,3.8,6.5,7,5.6
												C64.4,69.5,66.3,65.6,64.9,61.7z M60.6,69.1c-2.8,0.7-4.9-1.6-5.9-5.1c-1-3.5-0.1-6.9,2.1-7.8c2.2-0.9,5.5,1.7,6.9,5.2
												C65.1,64.9,63.4,68.4,60.6,69.1z"/>
										</g>
									</g>
								</g>
								<g>
									<g>
										<path class="st1" d="M69.3,66.7c0,0-0.2,0-0.5,0c-0.3,0-0.8,0-1.4,0.1c-0.6,0.1-1.2,0.2-1.9,0.5c-0.3,0.1-0.7,0.2-1,0.4
											c-0.3,0.2-0.7,0.3-1,0.5c-0.3,0.2-0.6,0.4-0.9,0.6c-0.3,0.2-0.6,0.5-0.8,0.7c-0.3,0.2-0.5,0.5-0.7,0.8
											c-0.2,0.2-0.4,0.5-0.6,0.7c-0.2,0.2-0.3,0.4-0.4,0.7c-0.1,0.2-0.2,0.4-0.3,0.5c-0.1,0.3-0.2,0.5-0.2,0.5s0.1-0.1,0.3-0.4
											c0.1-0.1,0.2-0.3,0.4-0.5c0.1-0.2,0.3-0.3,0.5-0.6c0.2-0.2,0.4-0.4,0.6-0.6c0.2-0.2,0.5-0.4,0.7-0.7
											c0.3-0.2,0.5-0.4,0.8-0.6c0.3-0.2,0.6-0.4,0.9-0.6c0.3-0.2,0.6-0.4,0.9-0.5c0.3-0.2,0.6-0.3,0.9-0.4
											c0.6-0.3,1.2-0.5,1.8-0.6c0.5-0.2,1-0.3,1.3-0.3C69.1,66.7,69.3,66.7,69.3,66.7z"/>
									</g>
								</g>
							</g>
							<g>
								<g>
									
										<radialGradient id="SVGID_3_" cx="322.1391" cy="-821.7421" r="9.6066" gradientTransform="matrix(0.9656 0.2595 -0.2595 0.9656 -460.6305 779.4332)" gradientUnits="userSpaceOnUse">
										<stop  offset="0.1184" style="stop-color:#F8B0AE"/>
										<stop  offset="1" style="stop-color:#FFFFFF"/>
									</radialGradient>
									<path class="st7" d="M59.9,78c2,3,7.3,1.9,10.2-0.7c2.8-2.6,3.9-7,2.2-9c-1.7-2-5.5-2.4-9.2,0.6
										C59.9,71.5,57.7,74.7,59.9,78z"/>
									<g>
										<path class="st8" d="M66.5,68.3c0.2,0.3-0.2,0.8-0.9,1.2c-0.7,0.4-1.5,0.4-1.7,0.1c-0.2-0.3,0.2-0.8,0.9-1.2
											C65.5,68,66.2,68,66.5,68.3z"/>
									</g>
									<g>
										<path class="st8" d="M68.4,68.2c0,0.2-0.2,0.4-0.5,0.4c-0.3,0.1-0.5,0-0.6-0.2c0-0.2,0.2-0.4,0.5-0.4
											C68.1,68,68.3,68.1,68.4,68.2z"/>
									</g>
								</g>
							</g>
						</g>
						<g>
							<g>
								
									<radialGradient id="SVGID_4_" cx="-874.2687" cy="-279.567" r="10.8418" gradientTransform="matrix(-0.8801 0.4747 0.4747 0.8801 -605.3797 731.6578)" gradientUnits="userSpaceOnUse">
									<stop  offset="0.1184" style="stop-color:#F8B0AE"/>
									<stop  offset="1" style="stop-color:#FFFFFF"/>
								</radialGradient>
								<path class="st9" d="M25,72.9c-1.4,2.9,0.8,6.7,3.3,8c2.5,1.2,5.8,0.2,6.6-2c0.9-2.2,0.1-5.5-2.9-7.3
									C29.4,70.1,26.6,69.7,25,72.9z"/>
								<g>
									<path class="st8" d="M33.4,74.1c-0.1,0.3-0.6,0.2-1.1-0.2c-0.4-0.4-0.7-1-0.5-1.3c0.1-0.3,0.6-0.2,1,0.2
										C33.2,73.2,33.5,73.8,33.4,74.1z"/>
								</g>
								<g>
									<path class="st8" d="M33.9,75.7c-0.1,0.1-0.3,0-0.4-0.2c-0.1-0.2-0.1-0.5,0-0.6c0.1-0.1,0.3,0,0.4,0.2
										C34,75.3,34,75.6,33.9,75.7z"/>
								</g>
							</g>
						</g>
						<g>
							<path class="st1" d="M34.9,75.3c0,0-0.1-0.6-0.5-1.4c-0.2-0.4-0.4-0.9-0.8-1.3c-0.3-0.5-0.8-0.9-1.3-1.2
								c-0.3-0.2-0.5-0.4-0.8-0.5c-0.3-0.1-0.5-0.2-0.8-0.3c-0.1,0-0.3-0.1-0.4-0.1c-0.1,0-0.3,0-0.4,0c-0.1,0-0.3,0-0.4,0
								c-0.1,0-0.2,0-0.4,0c-0.2,0-0.4,0-0.6,0.1c-0.2,0.1-0.3,0.1-0.4,0.1c-0.2,0.1-0.4,0.1-0.4,0.1s0.1,0,0.4,0c0.1,0,0.3,0,0.4,0
								c0.2,0,0.4,0,0.6,0.1c0.2,0,0.4,0.1,0.7,0.1c0.1,0,0.2,0.1,0.3,0.1c0.1,0,0.2,0.1,0.4,0.1c0.2,0.1,0.5,0.2,0.7,0.3
								c0.2,0.1,0.5,0.3,0.7,0.4c0.2,0.2,0.4,0.3,0.6,0.5c0.2,0.2,0.4,0.4,0.6,0.6c0.4,0.4,0.7,0.8,0.9,1.1
								C34.6,74.8,34.9,75.3,34.9,75.3z"/>
						</g>
						<g>
							<defs>
								<path id="SVGID_5_" d="M27.1,64.5c-0.5-5.1,5.8-10.9,10.8-4.2c4.6,6.2,1.4,13.3-3.7,13.7c-0.9-1.4-2.6-3.6-5.4-3.4
									C28.2,69.5,27.4,67.6,27.1,64.5z"/>
							</defs>
							<clipPath id="SVGID_6_">
								<use xlink:href="#SVGID_5_"  style="overflow:visible;"/>
							</clipPath>
							<g class="st10">
								<g>
									<g>
										<path class="st5" d="M38.7,65c1,4.1-1.1,7.7-4.2,8.1c-3.1,0.5-5.4-2.4-6.1-6.4c-0.7-4,0.6-7.8,3.1-8.4
											C34.1,57.7,37.6,60.9,38.7,65z"/>
										<g>
											<path class="st1" d="M38.7,65c0.7,3-0.2,6.6-3.3,8c-3.9,1.7-6.4-2.6-7.1-5.8c-0.6-2.9-0.3-7.6,3-8.8
												c1.4-0.5,3,0.4,4.1,1.3C37.1,60.9,38.2,62.9,38.7,65c0,0.1-0.1,0.2-0.1,0.1c-0.7-2.8-2.9-6.2-6-6.7
												c-2-0.3-3.3,1.6-3.9,3.3c-0.6,1.7-0.5,3.6-0.2,5.4c0.5,2.9,2.4,6.3,5.8,6.1c3.9-0.3,5-4.9,4.3-8
												C38.6,65,38.7,64.9,38.7,65z"/>
										</g>
									</g>
									<path class="st6" d="M38.7,65c-1-4.1-4.6-7.4-7.1-6.7c-2.6,0.7-3.8,4.4-3.1,8.4c0.7,4,3,6.8,6.1,6.4
										C37.6,72.7,39.7,69.1,38.7,65z M34,71.8c-2.7,0.4-4.5-2.1-5.1-5.7c-0.6-3.6,0.5-6.9,2.7-7.5c2.2-0.6,5.1,2.3,6.1,5.9
										C38.6,68.2,36.7,71.4,34,71.8z"/>
								</g>
							</g>
						</g>
						<path class="st3" d="M81.9,59.9c1.6-4.1,6-1.8,4.8,3.4C85.4,68.5,79.3,66.5,81.9,59.9z"/>
					</g>
					<path class="st1" d="M41.5,73.1c-0.3-0.4-0.6-0.8-0.7-1.3c0-0.2,0-0.4,0.1-0.5c0.2-0.2,0.4-0.2,0.6-0.4
						c0.9-0.6,1.4-1.7,1.6-2.7c0.3-1.2,0.3-2.4,0-3.6c0-0.1-0.1,0-0.1,0c0.2,1.1,0.2,2.3-0.1,3.4c-0.2,1.1-0.7,2.2-1.8,2.7
						c-0.4,0.2-0.8,0.5-0.8,1c0,0.4,0.2,0.8,0.4,1.2c0.2,0.4,0.6,0.7,0.9,1c0.4,0.3,0.8,0.5,1.2,0.8c0.4,0.3,0.9,0.6,1.2,0.9
						c0.4,0.4,0.6,1,0.7,1.6c0,0.1,0.2,0,0.2-0.1c-0.1-1-0.6-1.8-1.4-2.4C42.9,74.2,42.1,73.8,41.5,73.1z"/>
					<path class="st1" d="M59.4,78.6c-0.1-0.2-0.4,0-0.4,0.2c0,0.1-0.1,0.2-0.2,0.3c-0.4,0.1-0.8,0.1-1.2,0.1
						c-0.7,0.1-1.4,0.2-2.2,0.3c-1.4,0.1-2.9,0.2-4.3,0.3c-2.9,0.2-5.7,0.5-8.6,1.1c-0.8,0.2-1.6,0.4-2.3,0.6
						c-0.3,0.1-0.9,0.4-1.2,0.2c-0.1-0.1-0.1-0.1-0.2-0.2c-0.2-0.1-0.4,0.1-0.3,0.3c0.3,0.4,0.7,0.4,1.1,0.2c0.2,0,0.3-0.1,0.5-0.1
						c0.2,0.4,0.4,0.8,0.6,1.2c0.2,0.5,0.5,0.9,0.8,1.4c0.6,0.9,1.2,1.7,1.9,2.4c1.3,1.2,2.9,2.1,4.6,2.5c3.7,0.8,7.9-0.5,9.8-4
						c0.5-1,0.9-2,1.1-3.1c0.1-0.6,0.2-1.2,0.2-1.8c0-0.4,0.1-0.9-0.1-1.2c0.1,0,0.2-0.1,0.2-0.2c0,0,0.1,0,0.1-0.1
						c0.1,0,0.2-0.1,0.1-0.2C59.5,78.8,59.4,78.7,59.4,78.6z"/>
					<path class="st11" d="M58.8,80.7c0,0.5-0.1,1-0.2,1.5c-0.2,0.9-0.5,1.9-0.9,2.7c-0.4,0.9-0.9,1.7-1.7,2.4
						c-0.7,0.6-1.5,1.1-2.3,1.5c-3.3,1.4-7.2,0.6-9.9-1.7c-0.8-0.7-1.5-1.6-2-2.5c-0.3-0.5-0.7-1-0.9-1.5c-0.2-0.4-0.3-0.8-0.6-1.1
						c0.4-0.1,0.8-0.2,1.2-0.3c1.5-0.4,2.9-0.7,4.4-0.9c3-0.5,6-0.7,9-0.9c0.8-0.1,1.7-0.1,2.5-0.3c0.2,0,0.3,0,0.5-0.1
						c0.2,0,0.5,0.1,0.7,0C58.8,79.8,58.8,80.3,58.8,80.7z"/>
					<path class="st8" d="M43.8,83.7c1.3,0.4,2.6,0.3,3.9,0.3c1.5-0.1,3-0.3,4.5-0.7c2.4-0.6,4.8-1.6,6.6-3.2c0-0.2,0-0.4-0.1-0.6
						c-0.2,0-0.5,0-0.7,0c-0.2,0-0.3,0-0.5,0.1c-0.8,0.2-1.7,0.2-2.5,0.3c-3,0.2-6,0.5-9,0.9c-1.5,0.2-3,0.5-4.4,0.9
						c-0.1,0-0.2,0.1-0.4,0.1C41.8,82.6,42.6,83.3,43.8,83.7z"/>
					<path class="st12" d="M57.5,84.9c-2.1,0-4.3,0.4-6.2,1.3c-1.4,0.7-2.6,1.7-3.5,2.9c2,0.5,4.1,0.4,6-0.4
						c0.8-0.4,1.6-0.8,2.3-1.5c0.7-0.7,1.2-1.5,1.7-2.4c0,0,0,0,0,0C57.7,84.9,57.6,84.9,57.5,84.9z"/>
					<path class="st13" d="M31.3,52.1c-1.1-0.5-2.3-0.7-3.4-0.2c-1,0.4-1.7,1.3-2.2,2.2c-0.6,1.2-0.7,2.5-0.6,3.8c0,0,0,0,0,0
						c0,0.1,0.2,0.1,0.3,0c0.3-0.6,1-1,1.6-1.2c0.7-0.3,1.5-0.5,2.3-0.6c1.6-0.3,3.3-0.2,4.8,0.4c0.9,0.3,1.8,0.8,2.4,1.6
						c0.1,0.1,0.3-0.1,0.2-0.2C36,55.2,33.8,53.2,31.3,52.1z"/>
					<path class="st14" d="M31.9,55.5c-1.6-0.1-3.3,0.1-4.7,0.7c-0.7,0.3-1.5,0.7-1.9,1.4c0-1,0.2-2.1,0.6-3.1
						c0.4-0.9,1-1.8,1.9-2.2c1-0.5,2.2-0.3,3.2,0.1c1.2,0.5,2.3,1.2,3.2,2c0.8,0.7,1.5,1.6,2,2.6C35,56.1,33.4,55.6,31.9,55.5z"/>
					<path class="st13" d="M67.9,53.4C67.9,53.4,67.9,53.4,67.9,53.4C67.9,53.4,67.9,53.4,67.9,53.4c-0.2-0.7-0.6-1.4-1.1-2
						c-0.5-0.6-0.9-1.2-1.5-1.7c-0.9-0.9-2-1.4-3.2-1.7c-1.4-0.3-3-0.3-4.4,0.1c-1.5,0.4-2.7,1.3-3.8,2.4c-1.1,1-2.1,2.2-2.6,3.7
						c0,0,0,0,0,0c-0.1,0.1-0.1,0.1-0.1,0.2c-0.1,0.1,0.1,0.2,0.2,0.1c1.8-1.4,4.1-2.1,6.3-2.5c2.4-0.4,4.8-0.1,7.1,0.3
						c1,0.2,2.1,0.5,2.8,1.3C67.7,53.8,67.9,53.6,67.9,53.4C67.9,53.4,67.9,53.4,67.9,53.4z"/>
					<path class="st14" d="M65.4,52.1c-1.1-0.3-2.3-0.5-3.4-0.6c-2.5-0.2-4.9,0.1-7.3,0.9c-1.1,0.4-2.2,1-3.2,1.7
						c0.2-0.5,0.5-1,0.9-1.5c0.4-0.6,0.9-1.1,1.3-1.6c1-1,2.1-1.9,3.5-2.4c1.3-0.5,2.9-0.6,4.3-0.3c1.2,0.2,2.2,0.7,3.1,1.4
						c0.6,0.5,1,1.1,1.5,1.6c0.4,0.4,0.7,0.9,1,1.4C66.7,52.4,66,52.2,65.4,52.1z"/>
					<g>
						<g>
							<path class="st14" d="M5.5,47.4c-0.9-4.6,3.3-8.2,3.3-8.2c-5.7,0.5-7.4,2.8-7.2,1.6c0.9-5.6,6.8-7,6.8-7
								c-3.3-0.2-6.7-4.3-4-4C7.1,30,10,29.2,10,29.2c-6.5-2.1-7.7-10-5.2-7.5c2.5,2.6,10,2.9,15.8-0.9c9.4-6.2,18.4-9.7,29.2-11
								c10.9-1.3,19.6,4.3,19.6,4.3s-3.6-6.4-0.2-4.1c3.4,2.3,4.3,7,4.3,7s6.4-2.3,7.1-1.1c0.6,1.1-3,3.2-3,3.2
								c16.6,5,19,25.2,17.8,23.7c-1.2-1.5-3.3-2.9-3.3-2.9c5.4,6.3,3.4,14.6,3.2,13.2c-0.6-3.7-3.7-6.8-3.7-6.8s5.8,10.1,0.1,20.5
								C86,77.4,75.7,79.7,75.7,79.7s4.4-6.2,4.4-10.4c0,0,0.7,2.5,4.2,2c3.5-0.6,7.2-7.9,4.8-13.7c-2.4-5.8-8-4.8-9.8,1.2
								c0,0-2.9-9.4-4.2-15.1c0,0,0.8,5-0.4,7.5C73.6,53.7,68.6,39,68.6,39s1.2,4.4,0.8,6.4c-0.4,2-9.3-9.7-9.3-9.7s2.8,5.4,2.3,6.7
								c-0.5,1.3-9.6-8.4-9.6-8.4s3,6.7,1.7,8.6c-1.2,2-12.5-8.6-12.5-8.6s5.2,7.3,4.8,8.9c-0.4,1.6-11.3-3.6-13.9-6.9
								c0,0,2.4,3.7,6.2,7.1c3.8,3.4-8.1,1.3-13.7-5.2c0,0,2.5,5.1,1.8,8.2c-0.7,3.1-5.2-6.4-5.2-6.4s0.6,6-0.2,8.8
								c-0.8,2.8-2.2-0.7-2.2-0.7s-0.1,2.5-0.3,5.2c-0.8,3.2,0.8,5.8-0.4,4.9c-4.6-3.7-2.9-8.3-2.9-8.3c-2.2,2.6-2.4,7.5-3.1,6.1
								C10.4,51,13,47.3,13,47.3c-2.2,2-3.8,4.1-4.2,5.3C8.5,53.8,6.4,51.9,5.5,47.4z"/>
							<path class="st15" d="M69.2,20.8c-0.1,0-0.1-0.1-0.1-0.2c0.1-1.6-0.4-3.3-1.3-4.7c0.1,0.5,0.1,1,0.2,1.5
								c0,0.2-0.3,0.3-0.4,0.1c0,0,0,0,0,0c-0.3-0.2-0.6-0.5-0.9-0.7c-2.6-1.9-5.7-3.1-8.9-3.7c-3.2-0.6-6.6-0.5-9.8-0.1
								c-3.4,0.5-6.8,1.4-10,2.7c-3.7,1.5-7.1,3.5-10.6,5.3c-3.3,1.7-6.8,3.3-10.5,4c1.7,0.9,3.8,1,5.7,0.8c1.9-0.2,3.8-0.7,5.6-1.3
								c2.1-0.7,4.1-1.5,6.1-2.4c4.4-2.1,8.9-4.7,14-4.8c0.2,0,0.2,0.3,0.1,0.3c-0.9,0.4-1.9,0.7-2.8,1.1c-1.6,0.6-3.2,1.2-4.7,2.1
								c-1.4,0.8-2.5,2-3.3,3.4c0.5-0.3,1-0.6,1.5-0.9c1.3-0.8,2.6-1.6,4-2.3c1.3-0.6,2.7-1.1,4.1-1.1c0.2,0,0.2,0.3,0.1,0.3
								c-0.8,0.5-1.5,1-2.1,1.6c-2.2,2.1-3.8,5.1-2.8,8.1c0,0,0-0.1,0-0.1c0.5-2.1,2-3.9,3.6-5.2c1.8-1.4,3.9-2.5,6.1-3.1
								c2.2-0.6,4.4-0.7,6.6-0.2c2.4,0.6,4.3,2,5.9,3.8c1.3,1.5,2.4,3.2,3.4,5c-0.3-2-1.1-4-2-5.7c-0.1-0.2,0.1-0.3,0.3-0.2
								c1.1,0.6,2,1.4,2.8,2.3c1.4,1.7,2.4,3.7,3.2,5.7c0.7,1.8,1.3,3.7,2.1,5.4c0.1-0.8,0-1.6-0.1-2.4c-0.3-1.8-0.8-3.6-1.4-5.3
								c-0.7-2-2.1-3.7-3-5.6c-0.1-0.1,0-0.3,0.2-0.3c0.8,0.1,1.6,0.3,2.3,0.7c2.4,1.1,4.4,2.9,6.4,4.6c-0.3-0.6-0.6-1.3-1-1.9
								c-1.1-1.6-2.4-3-3.9-4.2C72.5,22.2,71,21.3,69.2,20.8z"/>
							<g>
								<path class="st16" d="M5.4,47.5c-0.5-3.1,1.1-6.3,3.4-8.4c0,0.1,0,0.2-0.1,0.2c-2.3,0.2-4.4,0.9-6.5,1.8
									c-0.2,0.1-0.6,0.3-0.7,0.1c-0.3-0.5,0.3-1.7,0.5-2.1c1-2.6,3.7-4.7,6.5-5.4c-0.1,0.1-0.1,0.2-0.2,0.3
									c-1.4-0.1-2.7-0.8-3.8-1.7c-0.5-0.4-1.6-1.4-1.2-2.2c0.4-0.8,1.8-0.4,2.4-0.4c1.5,0,3-0.2,4.4-0.6c-0.1,0.1-0.1,0.2-0.2,0.3
									c-3-1-6.1-3.8-6.4-7.1c0-0.4,0.1-1.2,0.6-1.2c0.4,0,0.7,0.4,0.9,0.6c0.6,0.6,1.5,1,2.3,1.3c4.8,1.6,10.1-0.2,14.2-2.8
									c4.4-2.9,9.2-5.3,14.1-7.1c3.9-1.4,7.9-2.4,12-3c3.7-0.6,7.3-0.7,11,0c3.8,0.7,7.7,2,11,4c-0.1,0.1-0.2,0.2-0.3,0.3
									c-0.4-0.7-0.7-1.3-1-2c-0.3-0.6-0.9-1.8-0.6-2.5c0.4-0.8,1.4,0,1.9,0.3c1.7,1.2,2.9,3.2,3.6,5.2c0.2,0.5,0.3,1,0.4,1.5
									c0,0.1-0.1,0.1,0,0c0.2-0.1,0.3-0.1,0.5-0.2c1.3-0.4,2.6-0.8,4-1.1c0.6-0.1,2.3-0.5,2.6,0.3c0.4,0.9-1.2,2-1.7,2.4
									c-0.5,0.4-1,0.7-1.5,1c0-0.1,0.1-0.2,0.1-0.3c7.6,2.4,13.1,8.3,16.1,15.5c0.9,2.2,1.7,4.6,1.9,7c0,0.4,0.1,1,0,1.4
									c-0.3,0.7-1-0.4-1.2-0.7c-0.8-0.8-1.6-1.4-2.5-2.1c0.1-0.1,0.2-0.2,0.3-0.3c2.8,3.4,4.5,8.3,3.5,12.8
									c-0.1,0.3-0.1,0.6-0.3,0.8c-0.4,0.3-0.4-0.6-0.4-0.7c-0.5-2.3-1.9-4.5-3.5-6.1c0.1-0.1,0.2-0.2,0.3-0.3
									c2.3,4.1,3.1,9.3,2.4,13.9c-1.3,8.4-8.1,15.5-15.8,18.6c-0.9,0.4-1.9,0.7-2.8,0.9c-0.1,0,0-0.1,0-0.2
									c0.8-1.1,1.5-2.3,2.1-3.5c1.1-2.1,2.2-4.4,2.2-6.8c0-0.1,0.2-0.3,0.3-0.2c0.6,2.2,3.7,2.4,5.4,1.5c2.6-1.5,3.8-5.2,4.1-8
									c0.3-3-0.7-6.8-3.5-8.4c-3.2-1.8-5.9,1.7-6.8,4.4c0,0-0.2,0.3-0.3,0.2c-1.5-5-3-10-4.2-15.1c0.1-0.1,0.2-0.2,0.3-0.2
									c0.4,2.4,0.6,5.3-0.4,7.6c-0.6,1.4-1.7-0.6-2-1.1c-1.9-3.4-3.2-7.2-4.4-10.8c0.1-0.1,0.2-0.2,0.3-0.2c0.3,1,0.4,1.9,0.6,2.9
									c0.2,1.1,0.5,2.6,0.1,3.7c-0.4,1.1-2-0.7-2.3-1c-2.6-2.6-4.9-5.6-7.2-8.6c0.1-0.1,0.2-0.2,0.3-0.2c0.9,1.8,1.9,3.7,2.3,5.7
									c0.1,0.4,0.2,1.1-0.3,1.4c-0.4,0.2-1-0.4-1.3-0.6c-1.8-1.3-3.5-3-5.1-4.6c-1.1-1.1-2.2-2.2-3.2-3.3c0.1-0.1,0.2-0.2,0.3-0.2
									c1,2.1,1.9,4.5,2,6.9c0,0.7,0,1.8-0.6,2.2c-0.5,0.3-1.3-0.1-1.8-0.3c-2.4-1.2-4.6-3.1-6.6-4.9c-1.4-1.1-2.7-2.3-4-3.5
									c0.1-0.1,0.2-0.2,0.3-0.3c0.8,1.1,6.5,8.7,4.3,9.4c-0.7,0.3-1.8-0.2-2.5-0.4c-1.4-0.5-2.7-1.1-3.9-1.7
									c-2.5-1.3-5.4-2.8-7.2-5c0.1-0.1,0.2-0.2,0.3-0.3c1.5,2.3,3.4,4.5,5.4,6.4c0.6,0.5,2.5,2.1,0.8,2.6c-0.7,0.2-1.6,0-2.3-0.1
									c-1.3-0.2-2.6-0.7-3.8-1.2c-3-1.2-5.8-3-7.9-5.5c0.1-0.1,0.2-0.2,0.3-0.2c0.9,1.8,1.5,3.7,1.8,5.7c0.1,0.5,0.5,3.8-0.9,3.4
									c-0.5-0.2-0.9-0.8-1.2-1.2c-0.6-0.8-1.1-1.6-1.6-2.5c-0.6-1.1-1.2-2.2-1.7-3.3c0.1-0.1,0.2-0.2,0.3-0.2
									c0.3,2.7,0.5,5.6-0.1,8.3c-0.1,0.6-0.5,2.1-1.3,1.8c-0.6-0.2-1-1.2-1.3-1.8c0.1-0.1,0.2-0.1,0.3-0.2c-0.1,2-0.2,4.1-0.5,6.1
									c-0.2,1,0,2.1,0.1,3.1c0,0.3,0.2,0.8,0,1.1c-0.6,0.8-2.6-2.2-2.8-2.6c-0.8-1.3-1.1-2.9-1-4.4c0-0.4,0.1-0.8,0.2-1.3
									c0-0.1,0-0.2,0.1-0.2c-0.1,0.3,0.3-0.2-0.1,0.3c-0.2,0.3-0.4,0.7-0.6,1c-0.8,1.5-1,3.2-1.7,4.7c-0.6,1.1-1.1-0.5-1.3-1
									c-0.6-1.6-0.7-3.3-0.2-4.9c0.2-0.8,0.5-1.5,0.9-2.2c0,0,0-0.1,0.1-0.1c-0.4,0.6,0.3-0.1-0.6,0.7c-0.5,0.4-0.9,0.9-1.3,1.4
									c-0.8,0.9-1.6,1.9-2,3c-0.2,0.6-0.7,0.9-1.3,0.4C6.2,51.7,5.7,49.2,5.4,47.5c0-0.1,0.3-0.3,0.3-0.2c0.3,1.4,0.7,2.8,1.4,4.1
									c0.1,0.2,1.4,2,1.7,1.3c0.8-2.2,2.7-3.9,4.3-5.4c0.1-0.1,0.2,0,0.1,0.1c-1.3,1.8-1.4,4.4-0.8,6.5c0.1,0.4,0.3,0.8,0.5,1.2
									c0.1,0.2,0.3,0.9,0.5,0.5c0.2-0.5,0.4-1.2,0.6-1.7c0.5-1.5,1.1-3.1,2.1-4.3c0,0,0.3-0.2,0.2,0c-1,2.9,0.5,6.1,2.6,8.1
									c0.1,0.1,0.3,0.2,0.4,0.3c0.2,0.1,0,0.3,0,0c0-0.3-0.1-0.6-0.1-0.9c-0.2-1-0.2-2-0.1-3c0.2-2,0.4-4,0.5-6.1
									c0-0.1,0.2-0.3,0.3-0.2c0.2,0.5,0.5,1.1,0.9,1.5c1.1,1.1,1.4-2.4,1.4-3c0.1-2.1,0-4.2-0.2-6.3c0-0.1,0.2-0.3,0.3-0.2
									c1.1,2.2,2.2,4.7,3.9,6.5c0.4,0.5,0.9,0.7,1-0.1c0.2-1.2,0-2.5-0.3-3.6c-0.4-1.5-0.9-3-1.5-4.3c0-0.1,0.2-0.3,0.3-0.2
									c1.8,2.1,4.1,3.7,6.6,4.9c1.9,0.9,4.1,1.8,6.2,1.9c0.4,0,1.5,0.1,1.3-0.5c-0.1-0.3-0.4-0.5-0.6-0.7
									c-0.7-0.7-1.4-1.3-2.1-2.1c-1.5-1.6-3-3.3-4.2-5.2c-0.1-0.1,0.2-0.3,0.3-0.3c1.5,1.9,3.8,3.2,5.9,4.3
									c2.1,1.2,4.5,2.4,6.8,2.8c0.2,0,0.9,0.2,0.9-0.1c0.1-0.4-0.1-0.8-0.2-1.1c-0.4-1.1-1.1-2.2-1.7-3.3c-0.9-1.5-1.9-3-2.9-4.4
									c-0.1-0.1,0.2-0.3,0.3-0.3c2.9,2.7,5.9,5.4,9.2,7.6c0.7,0.5,1.5,1,2.4,1.2c1.2,0.3,0.9-1.7,0.8-2.4c-0.3-2.1-1.1-4.2-2-6.2
									c0-0.1,0.2-0.3,0.3-0.2c2.3,2.5,4.7,4.9,7.2,7.1c0.5,0.5,1.1,0.9,1.7,1.3c0.2,0.1,0.4,0.2,0.4,0.1c0.1-0.5-0.1-1-0.2-1.4
									c-0.5-1.8-1.3-3.5-2.2-5.1c0-0.1,0.2-0.3,0.3-0.2c1.9,2.5,3.9,5.1,6,7.4c0.6,0.6,1.1,1.2,1.8,1.8c0.1,0.1,1.1,0.9,1.2,0.7
									c0.3-1.2,0-2.7-0.2-4c-0.1-0.8-0.3-1.6-0.5-2.5c0-0.1,0.2-0.3,0.3-0.2c1.1,3.2,2.3,6.4,3.7,9.4c0.4,0.8,0.8,1.5,1.2,2.2
									c0.2,0.3,0.7,1.1,1,0.4c0.9-2.2,0.6-5,0.3-7.3c0-0.1,0.3-0.3,0.3-0.2c1.2,5.1,2.6,10.1,4.2,15.1c-0.1,0.1-0.2,0.1-0.3,0.2
									c0.8-2.7,3-5.8,6.3-5.2c3.7,0.8,4.7,5.8,4.5,8.9c-0.2,3-1.6,6.5-4.2,8.3c-1.7,1.2-5.1,0.9-5.7-1.4c0.1-0.1,0.2-0.1,0.3-0.2
									c0,3.4-2,6.7-3.8,9.5c-0.2,0.3-0.4,0.6-0.6,0.9c-0.1,0.1-0.1-0.1,0-0.1c0.1,0,0.2,0,0.3-0.1c1.1-0.3,2.1-0.7,3.1-1.1
									c8.7-3.8,15.4-12.5,14.9-22.2c-0.1-3.2-0.9-6.8-2.6-9.6c-0.1-0.1,0.2-0.3,0.3-0.3c1.1,1.1,2,2.5,2.7,3.8
									c0.3,0.6,0.5,1.1,0.7,1.7c0.1,0.4,0.1,1,0.3,1.4c0-0.1-0.2,0.2-0.1,0c0-0.1,0.1-0.2,0.1-0.4c0.1-0.3,0.1-0.5,0.1-0.8
									c0.5-4.2-0.9-8.7-3.6-11.9c-0.1-0.1,0.2-0.3,0.3-0.3c0.5,0.3,1,0.7,1.5,1.1c0.7,0.5,1.2,1.3,1.8,1.8c0,0-0.1,0.2-0.1,0
									c0-0.1,0-0.2,0-0.3c0-0.3,0-0.6-0.1-0.9c-0.2-2.3-1-4.6-1.9-6.7c-2.9-7.2-8.5-13.3-16.1-15.6c-0.1,0,0.1-0.2,0.1-0.3
									c0.7-0.4,1.4-0.9,2.1-1.5c0.4-0.3,1.1-1.1,0.7-1.6c-0.3-0.3-0.9-0.2-1.2-0.2c-1.9,0.1-3.9,0.8-5.7,1.4c0,0-0.1,0-0.1,0
									c-0.2-1.1-0.6-2.1-1.1-3c-0.8-1.7-2.2-3.8-4.1-4.4c-0.8-0.2,0.2,2,0.3,2.3c0.3,0.7,0.6,1.3,1,2c0.1,0.1-0.2,0.3-0.3,0.3
									c-4.8-3.1-11.1-4.5-16.8-4.5c-5.3,0-10.7,1.4-15.6,3c-5.3,1.8-10.2,4.3-14.9,7.2c-1.4,0.9-2.7,1.8-4.3,2.4
									c-1.5,0.6-3,1-4.6,1.2c-2.5,0.3-5.3,0.2-7.5-1.1c-0.2-0.1-1.8-1.5-1.9-1.1c-0.2,0.7,0.2,1.6,0.5,2.2
									c1.1,2.5,3.3,4.5,5.9,5.4c0.1,0-0.1,0.3-0.2,0.3c-0.8,0.2-1.6,0.3-2.4,0.5c-0.7,0.1-1.4,0.1-2,0.1c-0.3,0-2-0.3-2,0.3
									c0,0.8,1,1.5,1.5,2c1,0.8,2.2,1.3,3.4,1.4c0.1,0-0.1,0.3-0.2,0.3c-2.7,0.7-5.1,2.7-6.1,5.3c0,0.1-0.7,1.9-0.3,1.8
									c0.4,0,0.9-0.4,1.2-0.5c1.8-0.8,3.8-1.2,5.8-1.4c0.1,0,0,0.2-0.1,0.2c-2.2,1.9-3.7,5-3.2,8C5.7,47.4,5.4,47.6,5.4,47.5z"/>
							</g>
						</g>
						<g class="st17">
							<path class="st18" d="M5.5,47.4c-0.9-4.6,3.3-8.2,3.3-8.2c-5.7,0.5-7.4,2.8-7.2,1.6c0.9-5.6,6.8-7,6.8-7
								c-3.3-0.2-6.7-4.3-4-4C7.1,30,10,29.2,10,29.2c-6.5-2.1-7.7-10-5.2-7.5c2.5,2.6,10,2.9,15.8-0.9c2.5-1.6,5-3.1,7.4-4.4
								c-1.4,1-4.7,3.3-7.4,5.1c-3.6,2.5-9.1,5-13.3,2.9c-1.2-0.6,2.7,4.3,7.3,4.9c0,0-3.3,1.6-7.1,1.4c-3.8-0.2,1.2,3.3,5.1,1.8
								c0,0-1.2,0.9-4.2,1.7c-3,0.8-5.7,3-6,4.8c0,0,5.5-3.6,10.2-1.2c0,0-5,1.9-6,5.8c-1,3.9,1.3,8,2.1,6c1.1-2.6,3.4-4.4,6.1-6
								c0.8-0.5-1.6,3-1.5,5.4c0.1,2.4,2.8-0.7,3.5-3.3c0,0-0.3,3.3,0.3,5.9c0.6,2.6,1.7,0.2,1.8-7.6c0,0,0.6,3.2,1.8,3
								c1.1-0.2,0.4-10.1,0.4-10.1s2.4,3.7,3.5,5.7c1.1,2,0.8-3.5-1.3-8c0,0,8.6,7.6,12,7.7c3.2,0-3.5-4.5-4.7-9.5
								c0,0,5.6,5.1,11,6.9c5.4,1.8-3.4-9.4-3.4-9.4s4.6,3.1,10.1,7.7c5.4,4.6,4.7-4,1.2-10.1c0,0,5.2,6.6,7.9,9.1
								c2.7,2.5-1.4-7.1-1.4-7.1s5.1,5.8,8.9,8.7c3.9,2.9-1-7.4-1-7.4s4.5,3.3,7.3,10.5c2.9,7.2,4.9,0.3,0.8-6.5
								c0,0,5.4,5.9,7.3,13.5c2,7.6,5.8-1.5,1.4-9.6c0,0,2.2,1.5,5.7,7.4c3.6,5.9,4.4-2.5-2.2-10c0,0,3.3,0.7,6.4,4.7
								c3.1,4,1-4.7-5.5-8.4c0,0,2.7-0.9,5.7,1.6c3,2.5-1.7-12.9-16.8-14.1c0,0,4.3-1.6,3.6-2.8c-0.7-1.2-5.4,1.4-5.4,1.4
								s0.1-1.6-0.6-3.7c-0.7-2.2-1.9-1-1.2,1.5c0,0-6.2-7.6-21.1-7.1c0.2,0,0.4-0.1,0.6-0.1c10.9-1.3,19.6,4.3,19.6,4.3
								s-3.6-6.4-0.2-4.1c3.4,2.3,4.3,7,4.3,7s6.4-2.3,7.1-1.1c0.6,1.1-3,3.2-3,3.2c16.6,5,19,25.2,17.8,23.7
								c-1.2-1.5-3.3-2.9-3.3-2.9c5.4,6.3,3.4,14.6,3.2,13.2c-0.6-3.7-3.7-6.8-3.7-6.8s5.8,10.1,0.1,20.5
								C86,77.4,75.7,79.7,75.7,79.7s4.4-6.2,4.4-10.4c0,0,0.7,2.5,4.2,2c3.5-0.6,7.2-7.9,4.8-13.7c-2.4-5.8-8-4.8-9.8,1.2
								c0,0-2.9-9.4-4.2-15.1c0,0,0.8,5-0.4,7.5C73.6,53.7,68.6,39,68.6,39s1.2,4.4,0.8,6.4c-0.4,2-9.3-9.7-9.3-9.7s2.8,5.4,2.3,6.7
								c-0.5,1.3-9.6-8.4-9.6-8.4s3,6.7,1.7,8.6c-1.2,2-12.5-8.6-12.5-8.6s5.2,7.3,4.8,8.9c-0.4,1.6-11.3-3.6-13.9-6.9
								c0,0,2.4,3.7,6.2,7.1c3.8,3.4-8.1,1.3-13.7-5.2c0,0,2.5,5.1,1.8,8.2c-0.7,3.1-5.2-6.4-5.2-6.4s0.6,6-0.2,8.8
								c-0.8,2.8-2.2-0.7-2.2-0.7s-0.1,2.5-0.3,5.2c-0.8,3.2,0.8,5.8-0.4,4.9c-4.6-3.7-2.9-8.3-2.9-8.3c-2.2,2.6-2.4,7.5-3.1,6.1
								C10.4,51,13,47.3,13,47.3c-2.2,2-3.8,4.1-4.2,5.3C8.5,53.8,6.4,51.9,5.5,47.4z"/>
						</g>
					</g>
				</g>
				<g>
					<path class="st19" d="M36.8,65.9c0.8,3.2,0.3,6-1.6,6.7c-1.9,0.7-4-1-4.7-4.2c-0.7-3.2,0.2-6.7,1.9-7.2
						C34.1,60.7,36,62.7,36.8,65.9z"/>
					<g>
						<path class="st20" d="M36.8,65.9c-0.8-3.2-2.7-5.2-4.4-4.7c-1.7,0.5-2.6,4-1.9,7.2c0.7,3.2,2.9,5,4.7,4.2
							C37.1,71.9,37.6,69.1,36.8,65.9z M35,71.9c-1.7,0.7-3.8-0.9-4.4-3.9c-0.6-3,0.2-6.1,1.8-6.6c1.6-0.5,3.4,1.3,4.1,4.3
							C37.2,68.6,36.8,71.2,35,71.9z"/>
					</g>
					<g class="st21">
						<path class="st22" d="M36.8,65.9c-0.8-3.2-2.7-5.2-4.4-4.7c-1.7,0.5-2.6,4-1.9,7.2c0.7,3.2,2.9,5,4.7,4.2
							C37.1,71.9,37.6,69.1,36.8,65.9z M36.9,69c-0.2,1.9-1.7,2.2-1.7,2c0-0.3,0.6-0.8,0.8-1.8c0.6-2-0.8-4.3-1.2-5
							c-0.4-0.7-0.5-1.3,0.3-0.6C36,64.2,37.1,66.8,36.9,69z"/>
					</g>
					<g class="st21">
						<path class="st23" d="M35.9,66.7c-0.5-2.2-1.9-3.5-3.2-2.9c-0.1,0-0.2,0.1-0.2,0.1c-0.2-0.3-0.5-0.5-0.8-0.5
							c-0.6,0.1-0.9,1.1-0.8,2.2c0,0.5,0.2,0.9,0.3,1.2c0,0.6,0,1.2,0.2,1.8c0.5,2.2,2,3.3,3.3,2.8C36,70.8,36.4,68.9,35.9,66.7z"/>
					</g>
					<path class="st24" d="M35.3,66.9c0.4,1.6,0.1,3.1-0.9,3.5c-1,0.4-2.1-0.5-2.5-2.1c-0.4-1.6,0.1-3.2,1.1-3.6
						C33.8,64.3,34.9,65.3,35.3,66.9z"/>
					<g class="st21">
						<path class="st25" d="M33.7,65.1c-0.2,1.6-1.1,2.9-2.1,2.8c-0.9-0.1-1.4-1.7-1.2-3.2c0.2-1.6,1-3.1,1.9-2.8
							C33.2,62.1,33.8,63.5,33.7,65.1z"/>
					</g>
					<path class="st8" d="M33,65c-0.1,1.2-0.8,2.2-1.5,2.1c-0.7-0.1-1-1.3-0.9-2.5c0.2-1.2,0.8-2.3,1.4-2.2
						C32.7,62.7,33.1,63.8,33,65z"/>
					<g>
						<path class="st19" d="M35.8,65.3c0.4,1.2,1,3.7-0.2,5.1c-0.7,0.8,1.3,0.2,1.1-2.6C36.5,65.6,35.2,63.7,35.8,65.3z"/>
					</g>
					<g>
						<path class="st19" d="M35.2,63.9c-0.2,0.1,0.1,0.8,0.4,0.6C35.8,64.4,35.5,63.8,35.2,63.9z"/>
					</g>
				</g>
				<g>
					<path class="st19" d="M62.5,62.3c1.1,3.1,0.9,5.9-0.8,6.9c-1.8,0.9-4.1-0.6-5.2-3.7c-1-3.1-0.5-6.6,1.1-7.4
						C59.2,57.3,61.4,59.2,62.5,62.3z"/>
					<g>
						<path class="st20" d="M62.5,62.3c-1.1-3.1-3.3-4.9-4.9-4.2c-1.6,0.7-2.2,4.3-1.1,7.4c1.1,3.1,3.4,4.6,5.2,3.7
							C63.5,68.2,63.6,65.3,62.5,62.3z M61.4,68.4c-1.7,0.9-3.9-0.5-4.8-3.4c-1-2.9-0.5-6.1,1-6.8c1.5-0.7,3.5,1,4.5,3.8
							C63.2,64.9,63.1,67.5,61.4,68.4z"/>
					</g>
					<g class="st21">
						<path class="st22" d="M62.5,62.3c-1.1-3.1-3.3-4.9-4.9-4.2c-1.6,0.7-2.2,4.3-1.1,7.4c1.1,3.1,3.4,4.6,5.2,3.7
							C63.5,68.2,63.6,65.3,62.5,62.3z M62.9,65.3c0,1.9-1.4,2.4-1.5,2.1c-0.1-0.3,0.5-0.9,0.6-1.8c0.4-2-1.3-4.2-1.8-4.9
							c-0.5-0.6-0.6-1.2,0.3-0.6C61.5,60.6,62.9,63.1,62.9,65.3z"/>
					</g>
					<g class="st21">
						<path class="st23" d="M61.7,63.2c-0.8-2.1-2.3-3.2-3.5-2.6c-0.1,0-0.2,0.1-0.2,0.1c-0.3-0.3-0.6-0.5-0.8-0.4
							c-0.5,0.2-0.8,1.2-0.6,2.3c0.1,0.5,0.3,0.9,0.5,1.1c0,0.6,0.1,1.1,0.3,1.7c0.7,2.1,2.4,3.1,3.6,2.4
							C62.3,67.2,62.5,65.2,61.7,63.2z"/>
					</g>
					<path class="st24" d="M61.1,63.4c0.6,1.6,0.4,3.1-0.5,3.6c-0.9,0.5-2.2-0.3-2.7-1.8c-0.5-1.6-0.2-3.2,0.7-3.7
						C59.4,61,60.5,61.8,61.1,63.4z"/>
					<g class="st21">
						<path class="st25" d="M59.3,61.8c0,1.6-0.8,3.1-1.7,3c-0.9,0-1.6-1.5-1.6-3.1c0-1.6,0.7-3.1,1.6-3
							C58.5,58.8,59.3,60.2,59.3,61.8z"/>
					</g>
					<path class="st8" d="M58.7,61.8c0,1.3-0.6,2.3-1.3,2.3c-0.7,0-1.2-1.1-1.1-2.4c0-1.2,0.5-2.4,1.2-2.3
						C58.1,59.5,58.7,60.6,58.7,61.8z"/>
					<g>
						<path class="st19" d="M61.4,61.7c0.6,1.2,1.4,3.6,0.4,5.1c-0.6,0.9,1.4,0.1,0.9-2.7C62.2,62,60.7,60.2,61.4,61.7z"/>
					</g>
					<g>
						<path class="st19" d="M60.7,60.5c-0.2,0.1,0.1,0.8,0.4,0.6C61.4,60.9,61,60.3,60.7,60.5z"/>
					</g>
				</g>
			</g>
		</g>
		<g>
			<g>
				<path class="st26" d="M30.2,16.1c0,0,18.8-11.5,33.3,3.3C78,34.1,80.2,55.1,80.2,55.1l6.3-2.8c0,0-3.4-18.3-14.6-32.9
					C59.8,3.6,34.1,7.5,30.2,16.1z"/>
				<path class="st27" d="M30.4,15.1c0,0,19.8-11.7,34.3,3c14.5,14.8,16.7,35.7,16.7,35.7l6.3-2.8c0,0-3.4-18.3-14.6-32.9
					C61,2.4,34.3,6.5,30.4,15.1z"/>
				<path class="st28" d="M35.9,12.1c2.9-1.8,6.1-3.1,9.4-4c0.9-0.2,1.8-0.4,2.8-0.6c-8.4,0.3-15.8,3.4-17.7,7.6
					c0,0,1.4-0.9,3.8-1.8C34.8,12.9,35.3,12.5,35.9,12.1z"/>
				<path class="st28" d="M80.5,38.5c-1.6-0.4-2.9-1.6-4-2.8c-0.1-0.1-0.3-0.3-0.4-0.4c4.4,10,5.3,18.6,5.3,18.6l6.3-2.8
					c0,0-1-5.6-3.9-13.1C82.9,38.6,81.7,38.8,80.5,38.5z"/>
			</g>
			<g>
				
					<ellipse transform="matrix(0.9987 -5.114686e-02 5.114686e-02 0.9987 -2.9244 4.3931)" class="st29" cx="84.4" cy="59.3" rx="12.5" ry="14.4"/>
				<path class="st28" d="M73.3,62.6c0.6,2.5,2,5,4.2,6.5c-0.3-0.7-0.7-1.3-1-1.9c-0.5-0.8-0.9-1.6-1.2-2.5
					c-1.2-2.8-1.7-5.9-1.5-8.9c0.1-0.9,0.2-1.8,0.4-2.7c-0.1,0.2-0.2,0.4-0.3,0.6C72.8,56.5,72.5,59.7,73.3,62.6z"/>
				<path class="st28" d="M83.9,44.9c-3.6,0.1-6.8,2-8.9,4.9c0.4-0.4,0.9-0.7,1.4-1c0.5-0.3,1.2-0.7,1.8-0.6c0.3,0,0.6,0.2,0.7,0.5
					c0.1,0.3,0.1,0.7-0.1,1c-0.1,0.3-0.3,0.6-0.5,0.9c-0.2,0.5-0.4,1-0.6,1.5c-0.4,1-0.8,1.9-1.1,3c-0.3,1-0.4,2-0.5,3
					c-0.1,2,0.2,4.1,0.8,6.1c0.3,0.8,0.6,1.7,1,2.5c0.4,0.6,0.8,1.2,1.1,1.9c0.3,0.6,0.6,1.3,0.4,1.9c-0.1,0.4-0.4,0.8-0.8,1
					c-0.4,0.2-0.7,0.1-1.1,0c2.1,1.7,4.7,2.6,7.5,2.5c6.9-0.2,12.3-6.9,12-14.9C96.6,50.9,90.8,44.7,83.9,44.9z"/>
				
					<ellipse transform="matrix(0.9994 -3.449112e-02 3.449112e-02 0.9994 -1.9912 3.0704)" class="st30" cx="88" cy="59.2" rx="10.6" ry="12.3"/>
				<g>
					<path class="st27" d="M88.6,48.7c-4,0.1-7.3,3.1-8.5,7.2c1.2-2.7,3.6-4.6,6.5-4.7c4.2-0.1,7.8,3.7,7.9,8.6
						c0.2,4.9-3.1,9-7.3,9.1c-1.9,0.1-3.7-0.7-5.1-2c1.8,2.2,4.4,3.6,7.2,3.5c5.2-0.2,9.2-5.2,9-11.2S93.7,48.6,88.6,48.7z"/>
					<path class="st26" d="M87.2,68.9c4.2-0.1,7.5-4.2,7.3-9.1c-0.2-4.9-3.7-8.7-7.9-8.6c-2.8,0.1-5.3,2-6.5,4.7
						c-0.4,1.2-0.6,2.6-0.5,4c0.1,2.7,1.1,5.2,2.6,7C83.5,68.3,85.3,69,87.2,68.9z"/>
				</g>
			</g>
			<path class="st28" d="M52.2,8.3c0,0,19.4-0.8,28.5,24.5C80.6,32.9,71.6,11.3,52.2,8.3z"/>
		</g>
	</g>
</g>
</svg>
